<?xml version="1.0" encoding="UTF-8" standalone="no"?>
<!-- Created with Inkscape (http://www.inkscape.org/) -->

<svg
   xmlns:dc="http://purl.org/dc/elements/1.1/"
   xmlns:cc="http://creativecommons.org/ns#"
   xmlns:rdf="http://www.w3.org/1999/02/22-rdf-syntax-ns#"
   xmlns:svg="http://www.w3.org/2000/svg"
   xmlns="http://www.w3.org/2000/svg"
   xmlns:sodipodi="http://sodipodi.sourceforge.net/DTD/sodipodi-0.dtd"
   xmlns:inkscape="http://www.inkscape.org/namespaces/inkscape"
   width="1306.0393mm"
   height="389.63779mm"
   viewBox="0 0 1306.0393 389.63779"
   version="1.1"
   id="svg1022"
   inkscape:version="0.92.3 (2405546, 2018-03-11)"
   sodipodi:docname="inflex-logo.svg">
  <defs
     id="defs1016">
    <inkscape:path-effect
       effect="bspline"
       id="path-effect1646"
       is_visible="true"
       weight="33.333333"
       steps="2"
       helper_size="0"
       apply_no_weight="true"
       apply_with_weight="true"
       only_selected="false" />
    <inkscape:path-effect
       effect="bspline"
       id="path-effect1646-6"
       is_visible="true"
       weight="33.333333"
       steps="2"
       helper_size="0"
       apply_no_weight="true"
       apply_with_weight="true"
       only_selected="false" />
  </defs>
  <sodipodi:namedview
     id="base"
     pagecolor="#ffffff"
     bordercolor="#666666"
     borderopacity="1.0"
     inkscape:pageopacity="0.0"
     inkscape:pageshadow="2"
     inkscape:zoom="0.24748737"
     inkscape:cx="2479.5958"
     inkscape:cy="1087.4106"
     inkscape:document-units="mm"
     inkscape:current-layer="layer1"
     showgrid="false"
     fit-margin-top="0"
     fit-margin-left="0"
     fit-margin-right="0"
     fit-margin-bottom="0"
     inkscape:snap-bbox="false"
     inkscape:bbox-paths="true"
     inkscape:snap-bbox-edge-midpoints="true"
     inkscape:snap-page="false"
     showguides="false"
     inkscape:guide-bbox="true"
     inkscape:snap-text-baseline="true"
     inkscape:snap-global="true"
     inkscape:snap-nodes="false"
     inkscape:snap-others="false"
     inkscape:snap-grids="false"
     inkscape:window-width="3840"
     inkscape:window-height="1947"
     inkscape:window-x="0"
     inkscape:window-y="55"
     inkscape:window-maximized="1">
    <inkscape:grid
       type="xygrid"
       id="grid1642"
       originx="5.0000001e-06"
       originy="-14.816748" />
    <sodipodi:guide
       position="460.37502,329.1416"
       orientation="0,1"
       id="guide1648"
       inkscape:locked="false" />
    <sodipodi:guide
       position="703.79169,64.558254"
       orientation="0,1"
       id="guide1650"
       inkscape:locked="false" />
    <sodipodi:guide
       position="246.44048,352.27382"
       orientation="1,0"
       id="guide1689"
       inkscape:locked="false" />
    <sodipodi:guide
       position="422.57739,501.19644"
       orientation="1,0"
       id="guide1691"
       inkscape:locked="false" />
  </sodipodi:namedview>
  <metadata
     id="metadata1019">
    <rdf:RDF>
      <cc:Work
         rdf:about="">
        <dc:format>image/svg+xml</dc:format>
        <dc:type
           rdf:resource="http://purl.org/dc/dcmitype/StillImage" />
        <dc:title></dc:title>
      </cc:Work>
    </rdf:RDF>
  </metadata>
  <g
     inkscape:label="Layer 1"
     inkscape:groupmode="layer"
     id="layer1"
     transform="translate(517.39559,3.349899)">
    <path
       style="fill:#85c872;fill-opacity:1;stroke-width:4.75166512"
       inkscape:connector-curvature="0"
       d="m -271.70021,45.560138 -47.51662,-47.5166129 c -1.85791,-1.8578988 -4.86095,-1.8578988 -6.71885,0 L -516.00217,188.11009 c -1.8579,1.8579 -1.8579,4.86095 0,6.71886 l 190.06649,190.06672 c 0.92657,0.92657 2.14299,1.39223 3.35942,1.39223 1.21643,0 2.43286,-0.46566 3.35943,-1.39223 l 47.51662,-47.51668 c 1.8579,-1.85791 1.8579,-4.86095 0,-6.71886 l -44.15719,-44.15726 44.15719,-44.15724 c 1.8579,-1.85791 1.8579,-4.86096 0,-6.71886 l -44.15719,-44.15725 44.15719,-44.15726 c 1.8579,-1.8579 1.8579,-4.86095 0,-6.71886 l -44.15719,-44.157229 44.15719,-44.157173 c 1.8579,-1.85791 1.8579,-4.86096 0,-6.71886 z m -50.87605,329.257232 -84.75064,-84.75075 h 81.59554 l 43.95288,43.95293 z m -3.1551,-91.87826 h -88.72304 l -40.38913,-40.38916 h 169.50129 z m -136.23966,-47.51666 -40.38913,-40.38918 h 176.62879 l 40.38912,40.38918 z m 136.23966,-47.51669 h -176.62879 l 40.38913,-40.38918 h 176.62878 z m -129.11217,-47.51668 40.38913,-40.389177 h 88.72304 l 40.38912,40.389177 z m 129.11217,-47.516628 h -81.59554 l 84.75064,-84.7506528 40.79778,40.7977688 z"
       id="path6-3" />
    <path
       style="fill:#285a84;fill-opacity:1;stroke-width:8.78456211"
       inkscape:connector-curvature="0"
       d="M -88.404008,320.42375 V 138.04321 h 11.594794 V 320.42375 Z M -82.78229,90.25177 q -4.567646,0 -8.08122,-3.338373 -3.513574,-3.338372 -3.513574,-7.906671 v 0 q 0,-4.919707 3.337895,-8.258079 3.337895,-3.338373 8.256899,-3.338373 v 0 q 4.567647,0 8.081221,3.338373 3.513574,3.338372 3.513574,7.906671 v 0 q 0,4.568299 -3.513574,8.082375 -3.513574,3.514077 -8.081221,3.514077 z m 170.056975,46.38581 q 34.081595,0 53.757605,19.85452 19.67602,19.85453 19.67602,56.75233 v 0 107.17932 h -11.5948 V 213.94724 q 0,-32.32949 -16.33812,-49.37276 -16.33812,-17.04327 -46.554769,-17.04327 v 0 q -34.081665,0 -53.757685,20.20593 -19.67601,20.20594 -19.67601,54.29248 v 0 98.39413 H 1.1921351 V 138.04321 H 12.435566 v 44.62876 q 8.78394,-21.43587 28.28427,-33.73513 19.50034,-12.29926 46.554849,-12.29926 z m 315.167515,206.62768 1.05407,9.8394 q -8.78393,3.86549 -19.32466,3.86549 v 0 q -21.78415,0 -33.37893,-12.65069 -11.59481,-12.65068 -11.59481,-34.08653 v 0 -188.70588 q 0,-26.706982 -11.24345,-39.709064 Q 316.71101,68.815905 295.2782,68.815905 v 0 q -21.43281,0 -32.67626,13.002081 -11.24341,13.002082 -11.24341,39.709064 v 0 16.51616 h 60.08211 v 10.19081 H 251.35853 V 320.42375 H 239.76372 V 148.23402 h -34.43303 v -10.19081 h 34.43303 v -15.81335 q 0,-31.626684 14.58135,-47.615729 14.58132,-15.989047 40.93313,-15.989047 v 0 q 26.70315,0 41.10881,15.813343 14.40567,15.813343 14.40567,47.791433 v 0 185.89463 q 0,38.30341 33.7303,38.30341 v 0 q 10.18936,0 17.91922,-3.16264 z m 110.32622,-32.32951 q 18.62196,0 34.43304,-6.85245 15.81107,-6.85245 26.35181,-20.20594 v 0 l 7.02715,7.73097 q -11.94615,14.75912 -29.68972,22.31438 -17.74354,7.55526 -38.47362,7.55526 v 0 q -26.35181,0 -47.43325,-11.77215 -21.08145,-11.77216 -33.0276,-32.85661 -11.94615,-21.08446 -11.94615,-47.79144 v 0 q 0,-26.70698 11.24342,-47.79143 11.24344,-21.08446 31.09513,-32.85661 19.85171,-11.77215 45.14942,-11.77215 v 0 q 23.1896,0 41.81155,11.06933 18.62193,11.06934 29.68969,30.04535 11.06776,18.97601 12.4732,41.81751 v 0 l -157.40811,31.27527 q 6.67578,27.4098 27.75723,43.75025 21.08144,16.34046 50.94681,16.34046 z M 507.49805,147.1798 q -22.13551,0 -39.352,10.36653 -17.21652,10.36652 -27.05452,28.81542 -9.83803,18.4489 -9.83803,41.6418 v 0 q 0,4.91971 0.70273,13.35349 v 0 l 147.57011,-28.81543 q -2.45951,-17.57038 -11.94615,-32.5052 -9.48666,-14.93482 -24.94639,-23.89571 -15.45971,-8.9609 -35.13575,-8.9609 z m 266.32893,173.24395 h -14.40564 l -66.05521,-85.74346 -66.05519,85.74346 h -13.70293 l 73.08234,-94.17724 -69.21741,-88.2033 h 13.70293 l 62.19026,79.76952 61.83892,-79.76952 h 13.35156 l -68.51468,88.2033 z"
       id="path14" />
    <path
       style="fill:none;stroke:#285a84;stroke-width:11.53966999;stroke-linecap:butt;stroke-linejoin:miter;stroke-miterlimit:4;stroke-dasharray:none;stroke-opacity:1"
       d="m -184.02058,-3.3771349 c 0,129.8880849 0,259.7764349 0,389.6651049"
       id="path1644"
       inkscape:connector-curvature="0"
       inkscape:path-effect="#path-effect1646-6"
       inkscape:original-d="m -184.02058,-3.3771349 c 2.6e-4,129.8880849 2.6e-4,259.7764349 0,389.6651049" />
  </g>
</svg>
