<svg xmlns="http://www.w3.org/2000/svg" viewBox="0 0 1306.039 389.638"><path d="M245.695 48.91L198.18 1.393a4.746 4.746 0 00-6.72 0L1.394 191.46a4.746 4.746 0 000 6.719L191.46 388.246a4.739 4.739 0 003.36 1.392 4.739 4.739 0 003.359-1.392l47.516-47.517a4.746 4.746 0 000-6.719l-44.157-44.157 44.157-44.157a4.746 4.746 0 000-6.72l-44.157-44.157 44.157-44.157a4.746 4.746 0 000-6.719l-44.157-44.157 44.157-44.157a4.746 4.746 0 000-6.719zM194.82 378.167l-84.75-84.75h81.595l43.953 43.952zm-3.155-91.878h-88.723l-40.389-40.39h169.501zm-136.24-47.517l-40.389-40.389h176.63l40.388 40.39zm136.24-47.516H15.035l40.39-40.39h176.628zM62.552 143.739l40.39-40.39h88.722l40.39 40.39zm129.112-47.517H110.07l84.75-84.75 40.798 40.797z" fill="#fff"/><path d="M428.992 323.774v-182.38h11.594v182.38zm5.621-230.172q-4.567 0-8.08-3.339-3.514-3.338-3.514-7.906 0-4.92 3.337-8.258 3.338-3.339 8.257-3.339 4.568 0 8.082 3.339 3.513 3.338 3.513 7.906 0 4.569-3.513 8.083-3.514 3.514-8.082 3.514zm170.057 46.385q34.082 0 53.758 19.855 19.676 19.855 19.676 56.752v107.18h-11.595V217.297q0-32.33-16.338-49.373t-46.555-17.043q-34.081 0-53.757 20.206-19.676 20.206-19.676 54.293v98.394h-11.595v-182.38h11.243v44.628q8.784-21.436 28.284-33.735 19.5-12.3 46.555-12.3zm315.168 206.628l1.054 9.84q-8.784 3.865-19.325 3.865-21.784 0-33.379-12.65-11.595-12.651-11.595-34.087V124.877q0-26.707-11.243-39.71-11.243-13.001-32.676-13.001t-32.676 13.002q-11.244 13.002-11.244 39.709v16.516h60.082v10.19h-60.082v172.19H757.16v-172.19h-34.433v-10.19h34.433V125.58q0-31.627 14.582-47.616 14.581-15.989 40.933-15.989 26.703 0 41.109 15.813 14.405 15.814 14.405 47.792v185.894q0 38.304 33.73 38.304 10.19 0 17.92-3.163zm110.326-32.33q18.622 0 34.433-6.852t26.352-20.206l7.027 7.731q-11.946 14.76-29.69 22.315-17.743 7.555-38.473 7.555-26.352 0-47.434-11.772-21.081-11.772-33.027-32.857-11.946-21.084-11.946-47.791 0-26.707 11.243-47.792 11.244-21.084 31.095-32.856 19.852-11.773 45.15-11.773 23.19 0 41.811 11.07 18.622 11.07 29.69 30.045 11.068 18.976 12.473 41.818L951.46 254.195q6.676 27.41 27.757 43.75 21.082 16.34 50.947 16.34zm-5.27-163.755q-22.136 0-39.352 10.366-17.217 10.367-27.055 28.816-9.838 18.449-9.838 41.641 0 4.92.703 13.354l147.57-28.815q-2.46-17.57-11.946-32.506-9.487-14.935-24.947-23.895-15.46-8.961-35.135-8.961zm266.329 173.244h-14.406l-66.055-85.744-66.055 85.744h-13.703l73.082-94.178-69.217-88.203h13.702l62.19 79.77 61.84-79.77h13.351l-68.514 88.203z" fill="#fff"/><path d="M333.375-.027v389.665" fill="none" stroke="#fff" stroke-width="11.54"/></svg>
