<?xml version="1.0" encoding="UTF-8" standalone="no"?>
<!-- Created with Inkscape (http://www.inkscape.org/) -->

<svg
   xmlns:dc="http://purl.org/dc/elements/1.1/"
   xmlns:cc="http://creativecommons.org/ns#"
   xmlns:rdf="http://www.w3.org/1999/02/22-rdf-syntax-ns#"
   xmlns:svg="http://www.w3.org/2000/svg"
   xmlns="http://www.w3.org/2000/svg"
   xmlns:sodipodi="http://sodipodi.sourceforge.net/DTD/sodipodi-0.dtd"
   xmlns:inkscape="http://www.inkscape.org/namespaces/inkscape"
   width="103.09203mm"
   height="103.09203mm"
   viewBox="0 0 103.09203 103.09203"
   version="1.1"
   id="svg877"
   inkscape:version="0.92.3 (2405546, 2018-03-11)"
   sodipodi:docname="inflex-icon-inkscape.svg">
  <defs
     id="defs871" />
  <sodipodi:namedview
     id="base"
     pagecolor="#ffffff"
     bordercolor="#666666"
     borderopacity="1.0"
     inkscape:pageopacity="0.0"
     inkscape:pageshadow="2"
     inkscape:zoom="0.35"
     inkscape:cx="2897.8301"
     inkscape:cy="-233.75184"
     inkscape:document-units="mm"
     inkscape:current-layer="layer1"
     showgrid="false"
     fit-margin-top="0"
     fit-margin-left="0"
     fit-margin-right="0"
     fit-margin-bottom="0"
     inkscape:window-width="3840"
     inkscape:window-height="1947"
     inkscape:window-x="0"
     inkscape:window-y="55"
     inkscape:window-maximized="1" />
  <metadata
     id="metadata874">
    <rdf:RDF>
      <cc:Work
         rdf:about="">
        <dc:format>image/svg+xml</dc:format>
        <dc:type
           rdf:resource="http://purl.org/dc/dcmitype/StillImage" />
        <dc:title></dc:title>
      </cc:Work>
    </rdf:RDF>
  </metadata>
  <g
     inkscape:label="Layer 1"
     inkscape:groupmode="layer"
     id="layer1"
     transform="translate(880.86636,16.10553)">
    <path
       inkscape:connector-curvature="0"
       style="fill:#85c872;stroke-width:0.26458332"
       d="M -797.00142,-3.1644652 -809.5731,-15.736671 a 1.2557125,1.2557125 0 0 0 -1.778,0 l -50.28829,50.288561 a 1.2557125,1.2557125 0 0 0 0,1.777736 l 50.28829,50.288565 a 1.2538604,1.2538604 0 0 0 0.889,0.3683 1.2538604,1.2538604 0 0 0 0.88874,-0.3683 l 12.57194,-12.572211 a 1.2557125,1.2557125 0 0 0 0,-1.777736 l -11.68321,-11.683206 11.68321,-11.683206 a 1.2557125,1.2557125 0 0 0 0,-1.778 l -11.68321,-11.683206 11.68321,-11.683207 a 1.2557125,1.2557125 0 0 0 0,-1.777735 l -11.68321,-11.683207 11.68321,-11.6832062 a 1.2557125,1.2557125 0 0 0 0,-1.777736 z M -810.4621,83.951451 -832.88553,61.528013 h 21.58867 l 11.62923,11.628967 z m -0.83476,-24.309388 h -23.47462 l -10.68626,-10.686521 h 44.84714 z m -36.04683,-12.572206 -10.68626,-10.686256 h 46.73336 l 10.68599,10.686521 z m 36.04683,-12.571942 h -46.73335 l 10.68652,-10.686521 h 46.73282 z m -34.16115,-12.572206 10.68653,-10.686521 h 23.47436 l 10.68652,10.686521 z m 34.16089,-12.5722072 h -21.58841 l 22.42343,-22.4234378 10.79447,10.7942068 z"
       id="path848" />
  </g>
</svg>
