<?xml version="1.0" encoding="UTF-8" standalone="no"?>
<!-- Created with Inkscape (http://www.inkscape.org/) -->

<svg
   xmlns:dc="http://purl.org/dc/elements/1.1/"
   xmlns:cc="http://creativecommons.org/ns#"
   xmlns:rdf="http://www.w3.org/1999/02/22-rdf-syntax-ns#"
   xmlns:svg="http://www.w3.org/2000/svg"
   xmlns="http://www.w3.org/2000/svg"
   xmlns:sodipodi="http://sodipodi.sourceforge.net/DTD/sodipodi-0.dtd"
   xmlns:inkscape="http://www.inkscape.org/namespaces/inkscape"
   width="103.09203mm"
   height="103.09203mm"
   viewBox="0 0 103.09203 103.09203"
   version="1.1"
   id="svg877"
   inkscape:version="0.92.3 (2405546, 2018-03-11)"
   sodipodi:docname="inflex-icon-inkscape-for-stripe.svg"
   inkscape:export-filename="/home/chris/inflex-stripe.png"
   inkscape:export-xdpi="147.82907"
   inkscape:export-ydpi="147.82907">
  <defs
     id="defs871" />
  <sodipodi:namedview
     id="base"
     pagecolor="#ffffff"
     bordercolor="#666666"
     borderopacity="1.0"
     inkscape:pageopacity="0.0"
     inkscape:pageshadow="2"
     inkscape:zoom="0.665"
     inkscape:cx="246.35076"
     inkscape:cy="176.98062"
     inkscape:document-units="mm"
     inkscape:current-layer="layer1"
     showgrid="false"
     fit-margin-top="0"
     fit-margin-left="0"
     fit-margin-right="0"
     fit-margin-bottom="0"
     inkscape:window-width="3840"
     inkscape:window-height="1947"
     inkscape:window-x="0"
     inkscape:window-y="55"
     inkscape:window-maximized="1" />
  <metadata
     id="metadata874">
    <rdf:RDF>
      <cc:Work
         rdf:about="">
        <dc:format>image/svg+xml</dc:format>
        <dc:type
           rdf:resource="http://purl.org/dc/dcmitype/StillImage" />
        <dc:title></dc:title>
      </cc:Work>
    </rdf:RDF>
  </metadata>
  <g
     inkscape:label="Layer 1"
     inkscape:groupmode="layer"
     id="layer1"
     transform="translate(880.86636,16.10553)">
    <path
       inkscape:connector-curvature="0"
       style="fill:#85c872;stroke-width:0.22986512"
       d="m -801.24226,1.9012223 -10.92205,-10.9225014 a 1.0909399,1.0909399 0 0 0 -1.54469,0 l -43.68954,43.6897771 a 1.0909399,1.0909399 0 0 0 0,1.544465 l 43.68954,43.689781 a 1.0893309,1.0893309 0 0 0 0.77234,0.319972 1.0893309,1.0893309 0 0 0 0.77213,-0.319972 l 10.92227,-10.922506 a 1.0909399,1.0909399 0 0 0 0,-1.544464 l -10.15016,-10.150155 10.15016,-10.150155 a 1.0909399,1.0909399 0 0 0 0,-1.544694 l -10.15016,-10.150154 10.15016,-10.150156 a 1.0909399,1.0909399 0 0 0 0,-1.544463 l -10.15016,-10.150156 10.15016,-10.1501547 a 1.0909399,1.0909399 0 0 0 0,-1.544464 z m -11.6944,75.6847067 -19.48106,-19.481071 h 18.75584 l 10.10326,10.103033 z m -0.72522,-21.119549 h -20.39432 l -9.28402,-9.284254 h 38.96237 z m -31.31682,-10.922502 -9.28403,-9.284023 h 40.60108 l 9.2838,9.284253 z m 31.31682,-10.922272 h -40.60108 l 9.28426,-9.284253 h 40.60061 z m -29.67858,-10.922502 9.28426,-9.284253 h 20.39409 l 9.28426,9.284253 z m 29.67835,-10.922502 h -18.75561 l 19.48106,-19.4810707 9.37804,9.3778085 z"
       id="path848" />
  </g>
</svg>
