<?xml version="1.0" encoding="UTF-8" standalone="no"?>
<!-- Created with Inkscape (http://www.inkscape.org/) -->

<svg
   xmlns:dc="http://purl.org/dc/elements/1.1/"
   xmlns:cc="http://creativecommons.org/ns#"
   xmlns:rdf="http://www.w3.org/1999/02/22-rdf-syntax-ns#"
   xmlns:svg="http://www.w3.org/2000/svg"
   xmlns="http://www.w3.org/2000/svg"
   xmlns:xlink="http://www.w3.org/1999/xlink"
   xmlns:sodipodi="http://sodipodi.sourceforge.net/DTD/sodipodi-0.dtd"
   xmlns:inkscape="http://www.inkscape.org/namespaces/inkscape"
   width="210mm"
   height="297mm"
   viewBox="0 0 210 297"
   version="1.1"
   id="svg1419"
   inkscape:version="0.92.3 (2405546, 2018-03-11)"
   sodipodi:docname="logo-purpley.svg">
  <defs
     id="defs1413">
    <linearGradient
       inkscape:collect="always"
       xlink:href="#linearGradient1125"
       id="linearGradient1127"
       x1="1134.6377"
       y1="-216.05183"
       x2="1435.6978"
       y2="-216.05183"
       gradientUnits="userSpaceOnUse" />
    <linearGradient
       inkscape:collect="always"
       id="linearGradient1125">
      <stop
         style="stop-color:#3f4795;stop-opacity:1;"
         offset="0"
         id="stop1121" />
      <stop
         style="stop-color:#c73b65;stop-opacity:1"
         offset="1"
         id="stop1123" />
    </linearGradient>
    <linearGradient
       inkscape:collect="always"
       xlink:href="#linearGradient1556-3-6-5-3-5-6-2"
       id="linearGradient1558"
       x1="1134.6377"
       y1="-216.05183"
       x2="1435.6978"
       y2="-216.05183"
       gradientUnits="userSpaceOnUse" />
    <linearGradient
       inkscape:collect="always"
       id="linearGradient1556-3-6-5-3-5-6-2">
      <stop
         style="stop-color:#c73b65;stop-opacity:1;"
         offset="0"
         id="stop1552" />
      <stop
         style="stop-color:#3f4795;stop-opacity:1"
         offset="1"
         id="stop1554" />
    </linearGradient>
    <linearGradient
       inkscape:collect="always"
       xlink:href="#linearGradient1556-3-6-5-3-5-6-2"
       id="linearGradient2143"
       gradientUnits="userSpaceOnUse"
       x1="1134.6377"
       y1="-216.05183"
       x2="1435.6978"
       y2="-216.05183" />
    <linearGradient
       inkscape:collect="always"
       xlink:href="#linearGradient1556-3-6-5-3-5-6-2"
       id="linearGradient2145"
       gradientUnits="userSpaceOnUse"
       x1="1134.6377"
       y1="-216.05183"
       x2="1435.6978"
       y2="-216.05183" />
    <linearGradient
       inkscape:collect="always"
       xlink:href="#linearGradient1556-3-6-5-3-5-6-2"
       id="linearGradient2147"
       gradientUnits="userSpaceOnUse"
       x1="1134.6377"
       y1="-216.05183"
       x2="1435.6978"
       y2="-216.05183" />
    <linearGradient
       inkscape:collect="always"
       xlink:href="#linearGradient1556-3-6-5-3-5-6-2"
       id="linearGradient2149"
       gradientUnits="userSpaceOnUse"
       x1="1134.6377"
       y1="-216.05183"
       x2="1435.6978"
       y2="-216.05183" />
    <linearGradient
       inkscape:collect="always"
       xlink:href="#linearGradient1556-3-6-5-3-5-6-2"
       id="linearGradient2151"
       gradientUnits="userSpaceOnUse"
       x1="1134.6377"
       y1="-216.05183"
       x2="1435.6978"
       y2="-216.05183" />
    <linearGradient
       inkscape:collect="always"
       xlink:href="#linearGradient1556-3-6-5-3-5-6-2"
       id="linearGradient2153"
       gradientUnits="userSpaceOnUse"
       x1="1134.6377"
       y1="-216.05183"
       x2="1435.6978"
       y2="-216.05183" />
    <linearGradient
       inkscape:collect="always"
       xlink:href="#linearGradient1556-3-6-5-3-5-6-2"
       id="linearGradient2155"
       gradientUnits="userSpaceOnUse"
       x1="1134.6377"
       y1="-216.05183"
       x2="1435.6978"
       y2="-216.05183" />
    <linearGradient
       inkscape:collect="always"
       xlink:href="#linearGradient1556-3-6-5-3-5-6-2"
       id="linearGradient2157"
       gradientUnits="userSpaceOnUse"
       x1="1134.6377"
       y1="-216.05183"
       x2="1435.6978"
       y2="-216.05183" />
    <linearGradient
       inkscape:collect="always"
       xlink:href="#linearGradient1556-3-6-5-3-5-6-2"
       id="linearGradient2159"
       gradientUnits="userSpaceOnUse"
       x1="1134.6377"
       y1="-216.05183"
       x2="1435.6978"
       y2="-216.05183" />
    <linearGradient
       inkscape:collect="always"
       xlink:href="#linearGradient1125"
       id="linearGradient2161"
       gradientUnits="userSpaceOnUse"
       x1="1134.6377"
       y1="-216.05183"
       x2="1435.6978"
       y2="-216.05183" />
    <linearGradient
       inkscape:collect="always"
       xlink:href="#linearGradient1125"
       id="linearGradient2163"
       gradientUnits="userSpaceOnUse"
       x1="1134.6377"
       y1="-216.05183"
       x2="1435.6978"
       y2="-216.05183" />
    <linearGradient
       inkscape:collect="always"
       xlink:href="#linearGradient1125"
       id="linearGradient2165"
       gradientUnits="userSpaceOnUse"
       x1="1134.6377"
       y1="-216.05183"
       x2="1435.6978"
       y2="-216.05183" />
    <linearGradient
       inkscape:collect="always"
       xlink:href="#linearGradient1125"
       id="linearGradient2167"
       gradientUnits="userSpaceOnUse"
       x1="1134.6377"
       y1="-216.05183"
       x2="1435.6978"
       y2="-216.05183" />
    <linearGradient
       inkscape:collect="always"
       xlink:href="#linearGradient1125"
       id="linearGradient2169"
       gradientUnits="userSpaceOnUse"
       x1="1134.6377"
       y1="-216.05183"
       x2="1435.6978"
       y2="-216.05183" />
    <linearGradient
       inkscape:collect="always"
       xlink:href="#linearGradient1125"
       id="linearGradient2171"
       gradientUnits="userSpaceOnUse"
       x1="1134.6377"
       y1="-216.05183"
       x2="1435.6978"
       y2="-216.05183" />
    <linearGradient
       inkscape:collect="always"
       xlink:href="#linearGradient1125"
       id="linearGradient2173"
       gradientUnits="userSpaceOnUse"
       x1="1134.6377"
       y1="-216.05183"
       x2="1435.6978"
       y2="-216.05183" />
    <linearGradient
       inkscape:collect="always"
       xlink:href="#linearGradient1125"
       id="linearGradient2175"
       gradientUnits="userSpaceOnUse"
       x1="1134.6377"
       y1="-216.05183"
       x2="1435.6978"
       y2="-216.05183" />
    <linearGradient
       inkscape:collect="always"
       xlink:href="#linearGradient1125"
       id="linearGradient2177"
       gradientUnits="userSpaceOnUse"
       x1="1134.6377"
       y1="-216.05183"
       x2="1435.6978"
       y2="-216.05183" />
    <linearGradient
       inkscape:collect="always"
       xlink:href="#linearGradient1556-3-6-5-3-5-6-2"
       id="linearGradient925"
       gradientUnits="userSpaceOnUse"
       x1="1134.6377"
       y1="-216.05183"
       x2="1435.6978"
       y2="-216.05183" />
    <linearGradient
       inkscape:collect="always"
       xlink:href="#linearGradient1556-3-6-5-3-5-6-2"
       id="linearGradient927"
       gradientUnits="userSpaceOnUse"
       x1="1134.6377"
       y1="-216.05183"
       x2="1435.6978"
       y2="-216.05183" />
    <linearGradient
       inkscape:collect="always"
       xlink:href="#linearGradient1556-3-6-5-3-5-6-2"
       id="linearGradient929"
       gradientUnits="userSpaceOnUse"
       x1="1134.6377"
       y1="-216.05183"
       x2="1435.6978"
       y2="-216.05183" />
    <linearGradient
       inkscape:collect="always"
       xlink:href="#linearGradient1556-3-6-5-3-5-6-2"
       id="linearGradient931"
       gradientUnits="userSpaceOnUse"
       x1="1134.6377"
       y1="-216.05183"
       x2="1435.6978"
       y2="-216.05183" />
    <linearGradient
       inkscape:collect="always"
       xlink:href="#linearGradient1556-3-6-5-3-5-6-2"
       id="linearGradient933"
       gradientUnits="userSpaceOnUse"
       x1="1134.6377"
       y1="-216.05183"
       x2="1435.6978"
       y2="-216.05183" />
    <linearGradient
       inkscape:collect="always"
       xlink:href="#linearGradient1556-3-6-5-3-5-6-2"
       id="linearGradient935"
       gradientUnits="userSpaceOnUse"
       x1="1134.6377"
       y1="-216.05183"
       x2="1435.6978"
       y2="-216.05183" />
    <linearGradient
       inkscape:collect="always"
       xlink:href="#linearGradient1556-3-6-5-3-5-6-2"
       id="linearGradient937"
       gradientUnits="userSpaceOnUse"
       x1="1134.6377"
       y1="-216.05183"
       x2="1435.6978"
       y2="-216.05183" />
    <linearGradient
       inkscape:collect="always"
       xlink:href="#linearGradient1556-3-6-5-3-5-6-2"
       id="linearGradient943"
       gradientUnits="userSpaceOnUse"
       x1="1134.6377"
       y1="-216.05183"
       x2="1435.6978"
       y2="-216.05183" />
    <linearGradient
       inkscape:collect="always"
       xlink:href="#linearGradient1125"
       id="linearGradient945"
       gradientUnits="userSpaceOnUse"
       x1="1134.6377"
       y1="-216.05183"
       x2="1435.6978"
       y2="-216.05183" />
    <linearGradient
       inkscape:collect="always"
       xlink:href="#linearGradient1125"
       id="linearGradient947"
       gradientUnits="userSpaceOnUse"
       x1="1134.6377"
       y1="-216.05183"
       x2="1435.6978"
       y2="-216.05183" />
    <linearGradient
       inkscape:collect="always"
       xlink:href="#linearGradient1125"
       id="linearGradient949"
       gradientUnits="userSpaceOnUse"
       x1="1134.6377"
       y1="-216.05183"
       x2="1435.6978"
       y2="-216.05183" />
    <linearGradient
       inkscape:collect="always"
       xlink:href="#linearGradient1125"
       id="linearGradient951"
       gradientUnits="userSpaceOnUse"
       x1="1134.6377"
       y1="-216.05183"
       x2="1435.6978"
       y2="-216.05183" />
    <linearGradient
       inkscape:collect="always"
       xlink:href="#linearGradient1125"
       id="linearGradient953"
       gradientUnits="userSpaceOnUse"
       x1="1134.6377"
       y1="-216.05183"
       x2="1435.6978"
       y2="-216.05183" />
    <linearGradient
       inkscape:collect="always"
       xlink:href="#linearGradient1125"
       id="linearGradient955"
       gradientUnits="userSpaceOnUse"
       x1="1134.6377"
       y1="-216.05183"
       x2="1435.6978"
       y2="-216.05183" />
    <linearGradient
       inkscape:collect="always"
       xlink:href="#linearGradient1125"
       id="linearGradient957"
       gradientUnits="userSpaceOnUse"
       x1="1134.6377"
       y1="-216.05183"
       x2="1435.6978"
       y2="-216.05183" />
    <linearGradient
       inkscape:collect="always"
       xlink:href="#linearGradient1125"
       id="linearGradient963"
       gradientUnits="userSpaceOnUse"
       x1="1134.6377"
       y1="-216.05183"
       x2="1435.6978"
       y2="-216.05183" />
  </defs>
  <sodipodi:namedview
     id="base"
     pagecolor="#ffffff"
     bordercolor="#666666"
     borderopacity="1.0"
     inkscape:pageopacity="0.0"
     inkscape:pageshadow="2"
     inkscape:zoom="5.3199999"
     inkscape:cx="291.77413"
     inkscape:cy="992.44149"
     inkscape:document-units="mm"
     inkscape:current-layer="layer1"
     showgrid="false"
     inkscape:window-width="3840"
     inkscape:window-height="1947"
     inkscape:window-x="0"
     inkscape:window-y="55"
     inkscape:window-maximized="1" />
  <metadata
     id="metadata1416">
    <rdf:RDF>
      <cc:Work
         rdf:about="">
        <dc:format>image/svg+xml</dc:format>
        <dc:type
           rdf:resource="http://purl.org/dc/dcmitype/StillImage" />
        <dc:title />
      </cc:Work>
    </rdf:RDF>
  </metadata>
  <g
     inkscape:label="Layer 1"
     inkscape:groupmode="layer"
     id="layer1">
    <rect
       style="opacity:1;vector-effect:none;fill:#f2f2f2;fill-opacity:1;stroke:none;stroke-width:0.69999999;stroke-linecap:round;stroke-linejoin:round;stroke-miterlimit:4;stroke-dasharray:none;stroke-dashoffset:0;stroke-opacity:1;paint-order:stroke fill markers"
       id="rect1391"
       width="8.802866"
       height="8.802866"
       x="40.377281"
       y="12.140229" />
    <rect
       y="12.140229"
       x="50.960625"
       height="8.802866"
       width="8.802866"
       id="rect1395"
       style="opacity:1;vector-effect:none;fill:#f2f2f2;fill-opacity:1;stroke:none;stroke-width:0.69999999;stroke-linecap:round;stroke-linejoin:round;stroke-miterlimit:4;stroke-dasharray:none;stroke-dashoffset:0;stroke-opacity:1;paint-order:stroke fill markers" />
    <path
       inkscape:connector-curvature="0"
       id="path929"
       d="m 7.4692405,13.424206 c 0.69809,0 0.69809,0 0.69809,0 v 1.39618 h -0.69809 z"
       style="fill:#c73b65;fill-opacity:1;stroke:none;stroke-width:0.13961786px;stroke-linecap:butt;stroke-linejoin:miter;stroke-opacity:1" />
    <path
       style="fill:#c73b65;fill-opacity:1;stroke:none;stroke-width:0.13961786px;stroke-linecap:butt;stroke-linejoin:miter;stroke-opacity:1"
       d="m 7.4692405,17.054276 c 0.69809,0 0.69809,0 0.69809,0 v 1.39617 h -0.69809 z"
       id="path931"
       inkscape:connector-curvature="0" />
    <path
       sodipodi:nodetypes="cccccccccccc"
       id="path933"
       style="font-style:normal;font-weight:normal;font-size:13.05277824px;line-height:1.25;font-family:sans-serif;letter-spacing:1.32291663px;word-spacing:0px;fill:#3f4795;fill-opacity:1;stroke:none;stroke-width:0.13961786"
       d="m 10.2616,13.424206 h 0.91478 l 2.22644,4.20063 v -4.20063 h 0.44745 c 0.13273,0.0299 0.1701,0.20275 0.21173,0.36926 v 4.65199 h -0.91479 l -2.22643,-4.20062 v 4.20062 H 10.2616 Z"
       inkscape:connector-curvature="0" />
    <path
       sodipodi:nodetypes="ccccccccccc"
       id="path935"
       style="font-style:normal;font-weight:normal;font-size:13.05277824px;line-height:1.25;font-family:sans-serif;letter-spacing:1.32291663px;word-spacing:0px;fill:#3f4795;fill-opacity:1;stroke:none;stroke-width:0.13961786"
       d="m 16.11209,13.424206 2.60428,0.0176 c 0.40553,0.18472 0.18896,0.36944 0.28134,0.55416 h -2.20625 v 1.4798 l 1.74234,0.0249 c 0.34672,0.13832 0.28839,0.34415 0.24867,0.54687 h -1.99101 v 2.39796 h -0.67937 z"
       inkscape:connector-curvature="0" />
    <path
       sodipodi:nodetypes="ccccccc"
       id="path937"
       style="font-style:normal;font-weight:normal;font-size:13.05277824px;line-height:1.25;font-family:sans-serif;letter-spacing:1.32291663px;word-spacing:0px;fill:#3f4795;fill-opacity:1;stroke:none;stroke-width:0.13961786"
       d="m 20.77875,13.424206 h 0.67937 v 4.44951 l 2.12177,0.0249 c 0.34207,0.18229 0.3761,0.36458 0.32327,0.54687 h -3.12441 z"
       inkscape:connector-curvature="0" />
    <path
       sodipodi:nodetypes="cccccccccccccc"
       id="path939"
       style="font-style:normal;font-weight:normal;font-size:13.05277824px;line-height:1.25;font-family:sans-serif;letter-spacing:1.32291663px;word-spacing:0px;fill:#3f4795;fill-opacity:1;stroke:none;stroke-width:0.13961786"
       d="m 25.31088,13.424206 h 2.9111 c 0.2386,0.0614 0.17738,0.37984 0.26375,0.57175 h -2.49548 v 1.48653 h 1.8788 c 0.26349,0.12035 0.21666,0.36483 0.26375,0.57174 h -2.14255 v 1.81949 h 2.41918 c 0.10715,0.0983 0.12102,0.33646 0.13684,0.57174 v 0 h -3.23539 z"
       inkscape:connector-curvature="0" />
    <path
       sodipodi:nodetypes="ccccccccccccccccc"
       id="path941"
       style="font-style:normal;font-weight:normal;font-size:13.05277824px;line-height:1.25;font-family:sans-serif;letter-spacing:1.32291663px;word-spacing:0px;fill:#3f4795;fill-opacity:1;stroke:none;stroke-width:0.13961786"
       d="m 30.33652,13.424206 h 0.51881 l 1.24774,1.86657 1.04347,-1.86657 h 0.72981 c 0.21655,-0.0231 0.20787,0.0405 0.12134,0.13394 l -1.52466,2.27747 1.63589,2.47941 c 0.006,0.079 -0.009,0.14408 -0.14253,0.13043 h -0.50122 l -1.41254,-2.13563 -1.42263,2.13563 h -0.51338 c -0.11298,0.0257 -0.11003,-0.0645 -0.13496,-0.12686 l 1.70774,-2.5536 -1.47983,-2.21498 c -0.008,-0.0613 -0.1452,-0.17227 0.12695,-0.12581 z"
       inkscape:connector-curvature="0" />
    <ellipse
       style="opacity:1;vector-effect:none;fill:#c73b65;fill-opacity:1;stroke:none;stroke-width:0.04964602;stroke-linecap:round;stroke-linejoin:miter;stroke-miterlimit:4;stroke-dasharray:none;stroke-dashoffset:0;stroke-opacity:1;paint-order:stroke fill markers"
       id="ellipse943"
       cx="7.8173923"
       cy="15.449952"
       rx="0.34993801"
       ry="0.34776402" />
    <ellipse
       ry="0.34776402"
       rx="0.34993801"
       cy="16.423096"
       cx="7.8173923"
       id="ellipse945"
       style="opacity:1;vector-effect:none;fill:#c73b65;fill-opacity:1;stroke:none;stroke-width:0.04964602;stroke-linecap:round;stroke-linejoin:miter;stroke-miterlimit:4;stroke-dasharray:none;stroke-dashoffset:0;stroke-opacity:1;paint-order:stroke fill markers" />
    <path
       style="fill:#c73b65;fill-opacity:1;stroke:none;stroke-width:0.13961786px;stroke-linecap:butt;stroke-linejoin:miter;stroke-opacity:1"
       d="m 44.5109,13.953376 c 0.69809,0 0.69809,0 0.69809,0 v 1.39618 H 44.5109 Z"
       id="path1382"
       inkscape:connector-curvature="0" />
    <path
       inkscape:connector-curvature="0"
       id="path1384"
       d="m 44.5109,17.583436 c 0.69809,0 0.69809,0 0.69809,0 v 1.39618 H 44.5109 Z"
       style="fill:#c73b65;fill-opacity:1;stroke:none;stroke-width:0.13961786px;stroke-linecap:butt;stroke-linejoin:miter;stroke-opacity:1" />
    <ellipse
       ry="0.34776402"
       rx="0.34993801"
       cy="15.979112"
       cx="44.859062"
       id="ellipse1386"
       style="opacity:1;vector-effect:none;fill:#c73b65;fill-opacity:1;stroke:none;stroke-width:0.04964602;stroke-linecap:round;stroke-linejoin:miter;stroke-miterlimit:4;stroke-dasharray:none;stroke-dashoffset:0;stroke-opacity:1;paint-order:stroke fill markers" />
    <ellipse
       style="opacity:1;vector-effect:none;fill:#c73b65;fill-opacity:1;stroke:none;stroke-width:0.04964602;stroke-linecap:round;stroke-linejoin:miter;stroke-miterlimit:4;stroke-dasharray:none;stroke-dashoffset:0;stroke-opacity:1;paint-order:stroke fill markers"
       id="ellipse1388"
       cx="44.859062"
       cy="16.952255"
       rx="0.34993801"
       ry="0.34776402" />
    <path
       inkscape:connector-curvature="0"
       id="path1407"
       d="m 54.76511,12.336046 c 1.13326,0 1.13326,0 1.13326,0 v 2.26651 h -1.13326 z"
       style="fill:#c73b65;fill-opacity:1;stroke:none;stroke-width:0.22665194px;stroke-linecap:butt;stroke-linejoin:miter;stroke-opacity:1" />
    <path
       style="fill:#c73b65;fill-opacity:1;stroke:none;stroke-width:0.22665194px;stroke-linecap:butt;stroke-linejoin:miter;stroke-opacity:1"
       d="m 54.76511,18.228986 c 1.13326,0 1.13326,0 1.13326,0 v 2.26652 h -1.13326 z"
       id="path1409"
       inkscape:connector-curvature="0" />
    <ellipse
       style="opacity:1;vector-effect:none;fill:#c73b65;fill-opacity:1;stroke:none;stroke-width:0.08059403;stroke-linecap:round;stroke-linejoin:miter;stroke-miterlimit:4;stroke-dasharray:none;stroke-dashoffset:0;stroke-opacity:1;paint-order:stroke fill markers"
       id="ellipse1411"
       cx="55.330315"
       cy="15.624558"
       rx="0.56808013"
       ry="0.56455088" />
    <ellipse
       ry="0.56455088"
       rx="0.56808013"
       cy="17.204346"
       cx="55.330315"
       id="ellipse1413"
       style="opacity:1;vector-effect:none;fill:#c73b65;fill-opacity:1;stroke:none;stroke-width:0.08059403;stroke-linecap:round;stroke-linejoin:miter;stroke-miterlimit:4;stroke-dasharray:none;stroke-dashoffset:0;stroke-opacity:1;paint-order:stroke fill markers" />
    <g
       transform="matrix(0.08849557,0,0,0.08849557,-34.73463,35.051426)"
       id="g1550"
       style="fill:url(#linearGradient1558);fill-opacity:1">
      <path
         inkscape:connector-curvature="0"
         id="path1499"
         d="m 1134.6578,-244.38753 c 7.8884,0 7.8884,0 7.8884,0 v 15.7768 h -7.8884 z"
         style="fill:url(#linearGradient2143);fill-opacity:1;stroke:none;stroke-width:1.5776819px;stroke-linecap:butt;stroke-linejoin:miter;stroke-opacity:1" />
      <path
         style="fill:url(#linearGradient2145);fill-opacity:1;stroke:none;stroke-width:1.5776819px;stroke-linecap:butt;stroke-linejoin:miter;stroke-opacity:1"
         d="m 1134.6578,-203.36784 c 7.8884,0 7.8884,0 7.8884,0 v 15.7768 h -7.8884 z"
         id="path1501"
         inkscape:connector-curvature="0" />
      <path
         sodipodi:nodetypes="cccccccccccc"
         id="path1503"
         style="font-style:normal;font-weight:normal;font-size:13.05277824px;line-height:1.25;font-family:sans-serif;letter-spacing:1.32291663px;word-spacing:0px;fill:url(#linearGradient2147);fill-opacity:1;stroke:none;stroke-width:1.5776819"
         d="m 1166.2114,-244.38753 h 10.3371 l 25.1587,47.46707 v -47.46707 h 5.0562 c 1.4998,0.33739 1.9221,2.29107 2.3926,4.17257 v 52.56751 h -10.3371 l -25.1587,-47.46706 v 47.46706 h -7.4488 z"
         inkscape:connector-curvature="0" />
      <path
         sodipodi:nodetypes="ccccccccccc"
         id="path1505"
         style="font-style:normal;font-weight:normal;font-size:13.05277824px;line-height:1.25;font-family:sans-serif;letter-spacing:1.32291663px;word-spacing:0px;fill:url(#linearGradient2149);fill-opacity:1;stroke:none;stroke-width:1.5776819"
         d="m 1232.322,-244.38753 29.4283,0.1987 c 4.5824,2.08733 2.1353,4.17465 3.1791,6.26198 h -24.9306 v 16.7218 l 19.6885,0.281 c 3.9178,1.56301 3.2588,3.88886 2.8099,6.17967 h -22.4984 v 27.09693 h -7.6768 z"
         inkscape:connector-curvature="0" />
      <path
         sodipodi:nodetypes="ccccccc"
         id="path1507"
         style="font-style:normal;font-weight:normal;font-size:13.05277824px;line-height:1.25;font-family:sans-serif;letter-spacing:1.32291663px;word-spacing:0px;fill:url(#linearGradient2151);fill-opacity:1;stroke:none;stroke-width:1.5776819"
         d="m 1285.0552,-244.38753 h 7.6768 v 50.27941 l 23.9761,0.281 c 3.8654,2.05989 4.2499,4.11978 3.6529,6.17967 h -35.3058 z"
         inkscape:connector-curvature="0" />
      <path
         sodipodi:nodetypes="cccccccccccccc"
         id="path1509"
         style="font-style:normal;font-weight:normal;font-size:13.05277824px;line-height:1.25;font-family:sans-serif;letter-spacing:1.32291663px;word-spacing:0px;fill:url(#linearGradient2153);fill-opacity:1;stroke:none;stroke-width:1.5776819"
         d="m 1336.2683,-244.38753 h 32.8953 c 2.6963,0.69405 2.0045,4.29211 2.9804,6.46068 h -28.1989 v 16.79782 h 21.2304 c 2.9774,1.35999 2.4482,4.12261 2.9804,6.46068 h -24.2108 v 20.56023 h 27.3367 c 1.2108,1.11043 1.3676,3.80206 1.5463,6.46067 v 0 h -36.5598 z"
         inkscape:connector-curvature="0" />
      <path
         sodipodi:nodetypes="ccccccccccccccccc"
         id="path1511"
         style="font-style:normal;font-weight:normal;font-size:13.05277824px;line-height:1.25;font-family:sans-serif;letter-spacing:1.32291663px;word-spacing:0px;fill:url(#linearGradient2155);fill-opacity:1;stroke:none;stroke-width:1.5776819"
         d="m 1393.0579,-244.38753 h 5.8626 l 14.0995,21.09224 11.7912,-21.09224 h 8.2468 c 2.447,-0.26086 2.3489,0.45716 1.3711,1.51351 l -17.2286,25.73542 18.4855,28.01724 c 0.066,0.89318 -0.1054,1.62811 -1.6105,1.47391 h -5.6639 l -15.9616,-24.1326 -16.0758,24.1326 h -5.8012 c -1.2766,0.29045 -1.2432,-0.72908 -1.525,-1.43352 l 19.2975,-28.8557 -16.7221,-25.02921 c -0.091,-0.69289 -1.6407,-1.94664 1.4345,-1.42165 z"
         inkscape:connector-curvature="0" />
      <ellipse
         style="opacity:1;vector-effect:none;fill:url(#linearGradient2157);fill-opacity:1;stroke:none;stroke-width:0.56100005;stroke-linecap:round;stroke-linejoin:miter;stroke-miterlimit:4;stroke-dasharray:none;stroke-dashoffset:0;stroke-opacity:1;paint-order:stroke fill markers"
         id="ellipse1513"
         cx="1138.592"
         cy="-221.49672"
         rx="3.9542997"
         ry="3.9297333" />
      <ellipse
         ry="3.9297333"
         rx="3.9542997"
         cy="-210.50017"
         cx="1138.592"
         id="ellipse1515"
         style="opacity:1;vector-effect:none;fill:url(#linearGradient2159);fill-opacity:1;stroke:none;stroke-width:0.56100005;stroke-linecap:round;stroke-linejoin:miter;stroke-miterlimit:4;stroke-dasharray:none;stroke-dashoffset:0;stroke-opacity:1;paint-order:stroke fill markers" />
    </g>
    <g
       style="fill:url(#linearGradient1127);fill-opacity:1"
       id="g1053"
       transform="matrix(0.08849557,0,0,0.08849557,-2.9846295,35.051426)">
      <path
         style="fill:url(#linearGradient2161);fill-opacity:1;stroke:none;stroke-width:1.5776819px;stroke-linecap:butt;stroke-linejoin:miter;stroke-opacity:1"
         d="m 1134.6578,-244.38753 c 7.8884,0 7.8884,0 7.8884,0 v 15.7768 h -7.8884 z"
         id="path1035"
         inkscape:connector-curvature="0" />
      <path
         inkscape:connector-curvature="0"
         id="path1037"
         d="m 1134.6578,-203.36784 c 7.8884,0 7.8884,0 7.8884,0 v 15.7768 h -7.8884 z"
         style="fill:url(#linearGradient2163);fill-opacity:1;stroke:none;stroke-width:1.5776819px;stroke-linecap:butt;stroke-linejoin:miter;stroke-opacity:1" />
      <path
         inkscape:connector-curvature="0"
         d="m 1166.2114,-244.38753 h 10.3371 l 25.1587,47.46707 v -47.46707 h 5.0562 c 1.4998,0.33739 1.9221,2.29107 2.3926,4.17257 v 52.56751 h -10.3371 l -25.1587,-47.46706 v 47.46706 h -7.4488 z"
         style="font-style:normal;font-weight:normal;font-size:13.05277824px;line-height:1.25;font-family:sans-serif;letter-spacing:1.32291663px;word-spacing:0px;fill:url(#linearGradient2165);fill-opacity:1;stroke:none;stroke-width:1.5776819"
         id="path1039"
         sodipodi:nodetypes="cccccccccccc" />
      <path
         inkscape:connector-curvature="0"
         d="m 1232.322,-244.38753 29.4283,0.1987 c 4.5824,2.08733 2.1353,4.17465 3.1791,6.26198 h -24.9306 v 16.7218 l 19.6885,0.281 c 3.9178,1.56301 3.2588,3.88886 2.8099,6.17967 h -22.4984 v 27.09693 h -7.6768 z"
         style="font-style:normal;font-weight:normal;font-size:13.05277824px;line-height:1.25;font-family:sans-serif;letter-spacing:1.32291663px;word-spacing:0px;fill:url(#linearGradient2167);fill-opacity:1;stroke:none;stroke-width:1.5776819"
         id="path1041"
         sodipodi:nodetypes="ccccccccccc" />
      <path
         inkscape:connector-curvature="0"
         d="m 1285.0552,-244.38753 h 7.6768 v 50.27941 l 23.9761,0.281 c 3.8654,2.05989 4.2499,4.11978 3.6529,6.17967 h -35.3058 z"
         style="font-style:normal;font-weight:normal;font-size:13.05277824px;line-height:1.25;font-family:sans-serif;letter-spacing:1.32291663px;word-spacing:0px;fill:url(#linearGradient2169);fill-opacity:1;stroke:none;stroke-width:1.5776819"
         id="path1043"
         sodipodi:nodetypes="ccccccc" />
      <path
         inkscape:connector-curvature="0"
         d="m 1336.2683,-244.38753 h 32.8953 c 2.6963,0.69405 2.0045,4.29211 2.9804,6.46068 h -28.1989 v 16.79782 h 21.2304 c 2.9774,1.35999 2.4482,4.12261 2.9804,6.46068 h -24.2108 v 20.56023 h 27.3367 c 1.2108,1.11043 1.3676,3.80206 1.5463,6.46067 v 0 h -36.5598 z"
         style="font-style:normal;font-weight:normal;font-size:13.05277824px;line-height:1.25;font-family:sans-serif;letter-spacing:1.32291663px;word-spacing:0px;fill:url(#linearGradient2171);fill-opacity:1;stroke:none;stroke-width:1.5776819"
         id="path1045"
         sodipodi:nodetypes="cccccccccccccc" />
      <path
         inkscape:connector-curvature="0"
         d="m 1393.0579,-244.38753 h 5.8626 l 14.0995,21.09224 11.7912,-21.09224 h 8.2468 c 2.447,-0.26086 2.3489,0.45716 1.3711,1.51351 l -17.2286,25.73542 18.4855,28.01724 c 0.066,0.89318 -0.1054,1.62811 -1.6105,1.47391 h -5.6639 l -15.9616,-24.1326 -16.0758,24.1326 h -5.8012 c -1.2766,0.29045 -1.2432,-0.72908 -1.525,-1.43352 l 19.2975,-28.8557 -16.7221,-25.02921 c -0.091,-0.69289 -1.6407,-1.94664 1.4345,-1.42165 z"
         style="font-style:normal;font-weight:normal;font-size:13.05277824px;line-height:1.25;font-family:sans-serif;letter-spacing:1.32291663px;word-spacing:0px;fill:url(#linearGradient2173);fill-opacity:1;stroke:none;stroke-width:1.5776819"
         id="path1047"
         sodipodi:nodetypes="ccccccccccccccccc" />
      <ellipse
         ry="3.9297333"
         rx="3.9542997"
         cy="-221.49672"
         cx="1138.592"
         id="ellipse1049"
         style="opacity:1;vector-effect:none;fill:url(#linearGradient2175);fill-opacity:1;stroke:none;stroke-width:0.56100005;stroke-linecap:round;stroke-linejoin:miter;stroke-miterlimit:4;stroke-dasharray:none;stroke-dashoffset:0;stroke-opacity:1;paint-order:stroke fill markers" />
      <ellipse
         style="opacity:1;vector-effect:none;fill:url(#linearGradient2177);fill-opacity:1;stroke:none;stroke-width:0.56100005;stroke-linecap:round;stroke-linejoin:miter;stroke-miterlimit:4;stroke-dasharray:none;stroke-dashoffset:0;stroke-opacity:1;paint-order:stroke fill markers"
         id="ellipse1051"
         cx="1138.592"
         cy="-210.50017"
         rx="3.9542997"
         ry="3.9297333" />
    </g>
    <g
       style="fill:url(#linearGradient943);fill-opacity:1"
       id="g903"
       transform="matrix(0.08849557,0,0,0.08849557,-34.73463,45.63476)">
      <path
         style="fill:url(#linearGradient925);fill-opacity:1;stroke:none;stroke-width:1.5776819px;stroke-linecap:butt;stroke-linejoin:miter;stroke-opacity:1"
         d="m 1134.6578,-244.38753 c 7.8884,0 7.8884,0 7.8884,0 v 15.7768 h -7.8884 z"
         id="path885"
         inkscape:connector-curvature="0" />
      <path
         inkscape:connector-curvature="0"
         id="path887"
         d="m 1134.6578,-203.36784 c 7.8884,0 7.8884,0 7.8884,0 v 15.7768 h -7.8884 z"
         style="fill:url(#linearGradient927);fill-opacity:1;stroke:none;stroke-width:1.5776819px;stroke-linecap:butt;stroke-linejoin:miter;stroke-opacity:1" />
      <path
         inkscape:connector-curvature="0"
         d="m 1166.2114,-244.38753 h 10.3371 l 25.1587,47.46707 v -47.46707 h 5.0562 c 1.4998,0.33739 1.9221,2.29107 2.3926,4.17257 v 52.56751 h -10.3371 l -25.1587,-47.46706 v 47.46706 h -7.4488 z"
         style="font-style:normal;font-weight:normal;font-size:13.05277824px;line-height:1.25;font-family:sans-serif;letter-spacing:1.32291663px;word-spacing:0px;fill:url(#linearGradient929);fill-opacity:1;stroke:none;stroke-width:1.5776819"
         id="path889"
         sodipodi:nodetypes="cccccccccccc" />
      <path
         inkscape:connector-curvature="0"
         d="m 1232.322,-244.38753 29.4283,0.1987 c 4.5824,2.08733 2.1353,4.17465 3.1791,6.26198 h -24.9306 v 16.7218 l 19.6885,0.281 c 3.9178,1.56301 3.2588,3.88886 2.8099,6.17967 h -22.4984 v 27.09693 h -7.6768 z"
         style="font-style:normal;font-weight:normal;font-size:13.05277824px;line-height:1.25;font-family:sans-serif;letter-spacing:1.32291663px;word-spacing:0px;fill:url(#linearGradient931);fill-opacity:1;stroke:none;stroke-width:1.5776819"
         id="path891"
         sodipodi:nodetypes="ccccccccccc" />
      <path
         inkscape:connector-curvature="0"
         d="m 1285.0552,-244.38753 h 7.6768 v 50.27941 l 23.9761,0.281 c 3.8654,2.05989 4.2499,4.11978 3.6529,6.17967 h -35.3058 z"
         style="font-style:normal;font-weight:normal;font-size:13.05277824px;line-height:1.25;font-family:sans-serif;letter-spacing:1.32291663px;word-spacing:0px;fill:url(#linearGradient933);fill-opacity:1;stroke:none;stroke-width:1.5776819"
         id="path893"
         sodipodi:nodetypes="ccccccc" />
      <path
         inkscape:connector-curvature="0"
         d="m 1336.2683,-244.38753 h 32.8953 c 2.6963,0.69405 2.0045,4.29211 2.9804,6.46068 h -28.1989 v 16.79782 h 21.2304 c 2.9774,1.35999 2.4482,4.12261 2.9804,6.46068 h -24.2108 v 20.56023 h 27.3367 c 1.2108,1.11043 1.3676,3.80206 1.5463,6.46067 v 0 h -36.5598 z"
         style="font-style:normal;font-weight:normal;font-size:13.05277824px;line-height:1.25;font-family:sans-serif;letter-spacing:1.32291663px;word-spacing:0px;fill:url(#linearGradient935);fill-opacity:1;stroke:none;stroke-width:1.5776819"
         id="path895"
         sodipodi:nodetypes="cccccccccccccc" />
      <path
         inkscape:connector-curvature="0"
         d="m 1393.0579,-244.38753 h 5.8626 l 14.0995,21.09224 11.7912,-21.09224 h 8.2468 c 2.447,-0.26086 2.3489,0.45716 1.3711,1.51351 l -17.2286,25.73542 18.4855,28.01724 c 0.066,0.89318 -0.1054,1.62811 -1.6105,1.47391 h -5.6639 l -15.9616,-24.1326 -16.0758,24.1326 h -5.8012 c -1.2766,0.29045 -1.2432,-0.72908 -1.525,-1.43352 l 19.2975,-28.8557 -16.7221,-25.02921 c -0.091,-0.69289 -1.6407,-1.94664 1.4345,-1.42165 z"
         style="font-style:normal;font-weight:normal;font-size:13.05277824px;line-height:1.25;font-family:sans-serif;letter-spacing:1.32291663px;word-spacing:0px;fill:url(#linearGradient937);fill-opacity:1;stroke:none;stroke-width:1.5776819"
         id="path897"
         sodipodi:nodetypes="ccccccccccccccccc" />
      <ellipse
         ry="3.9297333"
         rx="3.9542997"
         cy="-221.49672"
         cx="1138.592"
         id="ellipse899"
         style="opacity:1;vector-effect:none;fill:#404795;fill-opacity:1;stroke:none;stroke-width:0.56100005;stroke-linecap:round;stroke-linejoin:miter;stroke-miterlimit:4;stroke-dasharray:none;stroke-dashoffset:0;stroke-opacity:1;paint-order:stroke fill markers" />
      <ellipse
         style="opacity:1;vector-effect:none;fill:#404795;fill-opacity:1;stroke:none;stroke-width:0.56100005;stroke-linecap:round;stroke-linejoin:miter;stroke-miterlimit:4;stroke-dasharray:none;stroke-dashoffset:0;stroke-opacity:1;paint-order:stroke fill markers"
         id="ellipse901"
         cx="1138.592"
         cy="-210.50017"
         rx="3.9542997"
         ry="3.9297333" />
    </g>
    <g
       transform="matrix(0.08849557,0,0,0.08849557,-2.9846295,45.63476)"
       id="g923"
       style="fill:url(#linearGradient963);fill-opacity:1">
      <path
         inkscape:connector-curvature="0"
         id="path905"
         d="m 1134.6578,-244.38753 c 7.8884,0 7.8884,0 7.8884,0 v 15.7768 h -7.8884 z"
         style="fill:url(#linearGradient945);fill-opacity:1;stroke:none;stroke-width:1.5776819px;stroke-linecap:butt;stroke-linejoin:miter;stroke-opacity:1" />
      <path
         style="fill:url(#linearGradient947);fill-opacity:1;stroke:none;stroke-width:1.5776819px;stroke-linecap:butt;stroke-linejoin:miter;stroke-opacity:1"
         d="m 1134.6578,-203.36784 c 7.8884,0 7.8884,0 7.8884,0 v 15.7768 h -7.8884 z"
         id="path907"
         inkscape:connector-curvature="0" />
      <path
         sodipodi:nodetypes="cccccccccccc"
         id="path909"
         style="font-style:normal;font-weight:normal;font-size:13.05277824px;line-height:1.25;font-family:sans-serif;letter-spacing:1.32291663px;word-spacing:0px;fill:url(#linearGradient949);fill-opacity:1;stroke:none;stroke-width:1.5776819"
         d="m 1166.2114,-244.38753 h 10.3371 l 25.1587,47.46707 v -47.46707 h 5.0562 c 1.4998,0.33739 1.9221,2.29107 2.3926,4.17257 v 52.56751 h -10.3371 l -25.1587,-47.46706 v 47.46706 h -7.4488 z"
         inkscape:connector-curvature="0" />
      <path
         sodipodi:nodetypes="ccccccccccc"
         id="path911"
         style="font-style:normal;font-weight:normal;font-size:13.05277824px;line-height:1.25;font-family:sans-serif;letter-spacing:1.32291663px;word-spacing:0px;fill:url(#linearGradient951);fill-opacity:1;stroke:none;stroke-width:1.5776819"
         d="m 1232.322,-244.38753 29.4283,0.1987 c 4.5824,2.08733 2.1353,4.17465 3.1791,6.26198 h -24.9306 v 16.7218 l 19.6885,0.281 c 3.9178,1.56301 3.2588,3.88886 2.8099,6.17967 h -22.4984 v 27.09693 h -7.6768 z"
         inkscape:connector-curvature="0" />
      <path
         sodipodi:nodetypes="ccccccc"
         id="path913"
         style="font-style:normal;font-weight:normal;font-size:13.05277824px;line-height:1.25;font-family:sans-serif;letter-spacing:1.32291663px;word-spacing:0px;fill:url(#linearGradient953);fill-opacity:1;stroke:none;stroke-width:1.5776819"
         d="m 1285.0552,-244.38753 h 7.6768 v 50.27941 l 23.9761,0.281 c 3.8654,2.05989 4.2499,4.11978 3.6529,6.17967 h -35.3058 z"
         inkscape:connector-curvature="0" />
      <path
         sodipodi:nodetypes="cccccccccccccc"
         id="path915"
         style="font-style:normal;font-weight:normal;font-size:13.05277824px;line-height:1.25;font-family:sans-serif;letter-spacing:1.32291663px;word-spacing:0px;fill:url(#linearGradient955);fill-opacity:1;stroke:none;stroke-width:1.5776819"
         d="m 1336.2683,-244.38753 h 32.8953 c 2.6963,0.69405 2.0045,4.29211 2.9804,6.46068 h -28.1989 v 16.79782 h 21.2304 c 2.9774,1.35999 2.4482,4.12261 2.9804,6.46068 h -24.2108 v 20.56023 h 27.3367 c 1.2108,1.11043 1.3676,3.80206 1.5463,6.46067 v 0 h -36.5598 z"
         inkscape:connector-curvature="0" />
      <path
         sodipodi:nodetypes="ccccccccccccccccc"
         id="path917"
         style="font-style:normal;font-weight:normal;font-size:13.05277824px;line-height:1.25;font-family:sans-serif;letter-spacing:1.32291663px;word-spacing:0px;fill:url(#linearGradient957);fill-opacity:1;stroke:none;stroke-width:1.5776819"
         d="m 1393.0579,-244.38753 h 5.8626 l 14.0995,21.09224 11.7912,-21.09224 h 8.2468 c 2.447,-0.26086 2.3489,0.45716 1.3711,1.51351 l -17.2286,25.73542 18.4855,28.01724 c 0.066,0.89318 -0.1054,1.62811 -1.6105,1.47391 h -5.6639 l -15.9616,-24.1326 -16.0758,24.1326 h -5.8012 c -1.2766,0.29045 -1.2432,-0.72908 -1.525,-1.43352 l 19.2975,-28.8557 -16.7221,-25.02921 c -0.091,-0.69289 -1.6407,-1.94664 1.4345,-1.42165 z"
         inkscape:connector-curvature="0" />
      <ellipse
         style="opacity:1;vector-effect:none;fill:#c43b66;fill-opacity:1;stroke:none;stroke-width:0.56100005;stroke-linecap:round;stroke-linejoin:miter;stroke-miterlimit:4;stroke-dasharray:none;stroke-dashoffset:0;stroke-opacity:1;paint-order:stroke fill markers"
         id="ellipse919"
         cx="1138.592"
         cy="-221.49672"
         rx="3.9542997"
         ry="3.9297333" />
      <ellipse
         ry="3.9297333"
         rx="3.9542997"
         cy="-210.50017"
         cx="1138.592"
         id="ellipse921"
         style="opacity:1;vector-effect:none;fill:#c43b66;fill-opacity:1;stroke:none;stroke-width:0.56100005;stroke-linecap:round;stroke-linejoin:miter;stroke-miterlimit:4;stroke-dasharray:none;stroke-dashoffset:0;stroke-opacity:1;paint-order:stroke fill markers" />
    </g>
  </g>
</svg>
